<?xml version="1.0" encoding="iso-8859-1"?>
<!-- Generator: Adobe Illustrator 19.0.0, SVG Export Plug-In . SVG Version: 6.00 Build 0)  -->
<svg version="1.1" id="Capa_1" xmlns="http://www.w3.org/2000/svg" xmlns:xlink="http://www.w3.org/1999/xlink" x="0px" y="0px"
	 viewBox="0 0 57 57" style="enable-background:new 0 0 57 57;" xml:space="preserve">
<path style="fill:#546A79;" d="M38,35v-7.845c0-1.19-0.967-2.155-2.157-2.155H21.155C19.965,25,19,25.965,19,27.156v12.689
	C19,41.035,18.035,42,16.844,42H6.155C4.965,42,4,42.965,4,44.156v11.596c0,0.686,0.556,1.242,1.242,1.242h14.755h16.997L51.757,57
	C52.443,57,53,56.444,53,55.757V39.161c0-1.19-0.964-2.156-2.155-2.156l-10.69-0.004C38.965,37,38,36.19,38,35z"/>
<circle style="fill:#F3D55B;" cx="28.5" cy="33.5" r="4.5"/>
<circle style="fill:#8697CB;" cx="44.5" cy="46.5" r="4.5"/>
<circle style="fill:#88C057;" cx="12.5" cy="49.5" r="4.5"/>
<path style="fill:#F0C419;" d="M34.839,14.611c0.934-1.563,1.556-3.287,1.934-5.068c0.456-2.152,1.127-5.692,1.217-8.335
	C38.012,0.544,37.465,0,36.801,0h-7.82h-7.82c-0.664,0-1.211,0.544-1.189,1.208c0.089,2.643,0.761,6.183,1.217,8.335
	c0.378,1.781,0.999,3.505,1.934,5.068c1.79,2.994,3.69,3.95,4.83,4.253l-0.177,0.36C26.357,22.109,25.26,24,23,24
	c-0.553,0-1,0.447-1,1s0.447,1,1,1h12c0.553,0,1-0.447,1-1s-0.447-1-1-1c-2.26,0-3.357-1.891-4.774-4.776l-0.179-0.362
	C31.177,18.555,33.055,17.595,34.839,14.611z"/>
<path style="fill:none;stroke:#F29C1F;stroke-width:2;stroke-linecap:round;stroke-linejoin:round;stroke-miterlimit:10;" d="
	M37.586,5.108c-0.249,1.644-0.562,3.25-0.813,4.435c-0.378,1.781-0.999,3.505-1.934,5.068c-0.196,0.327-0.392,0.624-0.589,0.905
	C34.938,15.824,35.697,16,36.5,16c3.038,0,5.5-2.462,5.5-5.5C42,7.834,40.103,5.613,37.586,5.108z"/>
<path style="fill:none;stroke:#F29C1F;stroke-width:2;stroke-linecap:round;stroke-linejoin:round;stroke-miterlimit:10;" d="
	M23.121,14.611c-0.934-1.563-1.556-3.287-1.934-5.068c-0.251-1.183-0.564-2.786-0.812-4.427C17.877,5.635,16,7.848,16,10.5
	c0,3.038,2.462,5.5,5.5,5.5c0.791,0,1.542-0.17,2.221-0.471C23.521,15.245,23.32,14.943,23.121,14.611z"/>
<g>
</g>
<g>
</g>
<g>
</g>
<g>
</g>
<g>
</g>
<g>
</g>
<g>
</g>
<g>
</g>
<g>
</g>
<g>
</g>
<g>
</g>
<g>
</g>
<g>
</g>
<g>
</g>
<g>
</g>
</svg>
